<svg xmlns="http://www.w3.org/2000/svg" viewBox="0 0 71.82 167.18"><defs><style>.cls-1{fill:#232323;}</style></defs><title>Asset 5</title><g id="Layer_2" data-name="Layer 2"><g id="Layer_1-2" data-name="Layer 1"><polyline class="cls-1" points="22.41 64.44 11.82 128.23 10.67 135.13 18.14 142.73 25.19 142.73 53.91 142.73 61.15 135.49 49.34 64.44 49.34 64.44"/><polyline points="22.41 64.44 22.41 64.44 11.82 128.23 10.67 135.13 18.14 142.73 25.19 142.73 48.24 142.73 39.34 64.44"/><polygon points="65.74 167.18 65.74 167.18 6.09 167.18 6.09 167.18 0 161.09 0 155.01 6.09 148.92 6.09 148.92 63.71 148.92 65.74 148.92 65.74 148.92 71.83 155.01 71.83 161.09 65.74 167.18"/><polyline class="cls-1" points="0 158.05 0 155.01 6.09 148.92 6.09 148.92 63.71 148.92 65.74 148.92 65.74 148.92 71.83 155.01 71.83 158.05"/><polygon points="63.6 155.67 8.23 155.67 13.05 150.97 58.87 150.97 63.6 155.67"/><polyline class="cls-1" points="20.58 21.34 15.7 26.22 22.99 53.47 35.59 53.33 35.59 53.33 48.19 53.33 55.61 25.61 51.34 21.34 51.34 21.34 35.59 21.34"/><polygon points="46.82 21.34 35.59 21.34 20.58 21.34 15.7 26.22 22.99 53.47 35.59 53.33 38.22 53.33 46.82 21.34"/><rect x="15.93" y="49.13" width="39.91" height="8.67"/><rect x="32.32" width="6.67" height="16.67"/><rect x="27.55" y="5" width="16.22" height="6.67"/><polygon class="cls-1" points="38.99 5 38.99 0 35.66 0 35.66 16.67 37.92 16.67 38.99 16.67 38.99 15.6 38.99 11.68 42.63 11.68 43.77 11.68 43.77 10.54 43.77 6.13 43.77 5 42.64 5 38.99 5"/></g></g></svg>