<svg xmlns="http://www.w3.org/2000/svg" viewBox="0 0 71.82 166.97"><defs><style>.cls-1{fill:#232323;}</style></defs><title>Asset 7</title><g id="Layer_2" data-name="Layer 2"><g id="Layer_1-2" data-name="Layer 1"><path class="cls-1" d="M37.39,65.66A57.74,57.74,0,0,1,26,64.53L15.37,128.59,14.31,135l6.88,7h33l6.68-6.68L49.07,64.47A57.63,57.63,0,0,1,37.39,65.66Z"/><path d="M37.54,65.66A58.4,58.4,0,0,1,26,64.51L15.37,128.59,14.31,135l6.88,7H48.94L40.28,65.58Z"/><polygon points="65.74 166.97 65.74 166.97 6.09 166.97 6.09 166.97 0 160.88 0 154.79 6.09 148.71 6.09 148.71 63.71 148.71 65.74 148.71 65.74 148.71 71.83 154.79 71.83 160.88 65.74 166.97"/><polyline class="cls-1" points="0 157.84 0 154.79 6.09 148.71 6.09 148.71 63.71 148.71 65.74 148.71 65.74 148.71 71.83 154.79 71.83 157.84"/><polygon points="63.6 155.46 8.23 155.46 13.05 150.75 58.87 150.75 63.6 155.46"/><path d="M37.35,9.42A68.93,68.93,0,0,0,27.31,22a17.71,17.71,0,0,1,9.22,12.68,17.69,17.69,0,0,0-11.77-8.09C20.61,35,20.62,40.67,20.62,40.67a16.74,16.74,0,1,0,33.47,0S54.27,26.33,37.35,9.42Z"/><path class="cls-1" d="M37.37,9.43h0l0,0Z"/><path class="cls-1" d="M37.29,57.41h0Z"/><path class="cls-1" d="M37.55,9.61C50.15,26.44,50,40.67,50,40.67c0,9.18-5.57,16.63-12.46,16.73A16.73,16.73,0,0,0,54.09,40.67S54.27,26.44,37.55,9.61Z"/><path class="cls-1" d="M36.93,57.4a24,24,0,0,1-3.9-.56A17.23,17.23,0,0,0,36.93,57.4Z"/><path d="M43.8,4.29A7,7,0,0,0,35,.44,6.9,6.9,0,0,0,31,9.32,6.91,6.91,0,0,0,40,13.13,6.81,6.81,0,0,0,43.8,4.29Z"/><path class="cls-1" d="M34.91.45l0,0a8.53,8.53,0,0,1,5.53,5.16,8.51,8.51,0,0,1-.54,7.54l0,0a7,7,0,0,0,3.86-8.84A7,7,0,0,0,34.91.45Z"/></g></g></svg>