<svg xmlns="http://www.w3.org/2000/svg" viewBox="0 0 897 200.13"><defs><style>.cls-1{fill:#fff;}</style></defs><title>Asset 1</title><g id="Layer_2" data-name="Layer 2"><g id="Layer_1-2" data-name="Layer 1"><path class="cls-1" d="M59.82,9.56C60,19.79,61.37,29.8,61.82,40a1.15,1.15,0,0,0,.89.44c1.33,0,2-2,3.78-2a4,4,0,0,0,4,3.11c.67,0,1.33-1.11,2.67-1.11,9.56,5.34,22.46,8,30,16.46,1.11,1.33,1.78,3.11,3.11,4.44,4.67,4.89,13.12,6.9,18.68,11.34,1.78.23,1.33-2.22,2-3.11h.89c4.89.22,6.23-7.12,7.78-10.67,2.89-5.78,9.79-19.57,13.79-23.35a1.22,1.22,0,0,1,.89,1.33,12.94,12.94,0,0,1-.89,3.12c-2.89,11.34-6.23,24-6,35.57,2.89.45,3.55-4.67,5.11-4.44H149c-1.78,7.56-4.23,15.12-5.12,22.9-.89,8-.89,24.24-7.12,30-.22,2,1.34,2.67,3.12,3.11A96.37,96.37,0,0,1,127,141.42v-2.66c-12.23,9.78-22.9,21.34-35.58,30.46,0-2.89,8.9-12,11.34-15.12-3.78-.22-22.68,13.34-27.13,16-4,2.67-9.11,4.89-10.22,10.23v1.56c0,2.44.66,4.67.66,6.89a12.07,12.07,0,0,1-1.11,4.89,132.64,132.64,0,0,1-2-15.79c-4.67,1.78-8.89,4.23-13.56,6,3.78-4.67,9.78-6.45,13.56-11.12v-1.56c.22-2.89-1.33-5.11-2.45-7.56a32.93,32.93,0,0,1-4.67,0c-3.33,0-6.44,2-9.78,2a5.28,5.28,0,0,1-1.78-.44c2.67-2.45,7.12-2.45,9.12-5.56-1.78-2.22-4.67-2.89-7.56-2.89-5.56,0-11.12,2-16.9,2-3.78,0-27.8-4.23-28.91-6.23A2.69,2.69,0,0,1,2.67,151c4.22,0,9.34,2,14.23,2,1.78,0,3.78-.45,5.78-.45,2.89,0,5.11,2.67,8,2.67,3.55,0,9.34-2.67,13.12-3.56,4.67-1.33,12.89-2,15.56-6.22-1.11-18.68-1.11-37.36-1.11-56,0-8.23.67-16.45.67-24.68,0-4.45.44-14.68-4-16.9V46.7c0-.67.67-1.34.67-2V43.58a61.28,61.28,0,0,0-12.67-1.33c-12.23,0-24.24,3.56-35.36,8.45,1.11-8.67,13.56-8.45,20-9.12A169.2,169.2,0,0,1,48.92,40C55.81,40,58,37.8,58,30.69c0-4.9-.89-9.79-.89-14.68a17.25,17.25,0,0,1,1.11-6.89Zm43.36,63.6C99,68.49,95,62.71,89.84,58.93,87,56.7,82.72,54.26,79.16,54.26a4.48,4.48,0,0,0-2.44.66c-1.34,1.78-1.56,4.23-1.56,6.45,0,6.67.67,13.34.67,20.24q0,14.34-.67,28.68c-2-1.11-.67-4.89-3.11-5.56-2,6.9-1.12,14.68-1.56,21.8,0,1.55.22,6.22-2,6.22-1.78,0-.89-2.67-.89-3.56,0-3.11-.67-9.78-3.11-11.78-2.23,1.33-2.67,4.22-2.67,6.67,0,4,.22,19.35,3.56,21.35,3.55-.22,6.44-2.67,9.78-4,4.22-1.77,8.89-2.44,13.12-4.22,8.45-3.34,14.68-8.45,20.9-14.68,2.89-2.89,6.9-5.11,9.12-8.67a17.59,17.59,0,0,0,3.11-9.78,12.75,12.75,0,0,0-2.44-8c-3.34,2.23-17.35,10-20.46,10.23,3.33-3.78,16.9-14.23,16.9-17.79C115.41,84.5,105.85,76.27,103.18,73.16ZM66,171.67c8.9-4.23,17.79-9.34,22.24-18.68-7.34,2.67-15.79,4.45-22.24,9.34Zm74.05-70.49a3.64,3.64,0,0,0,1.33,3.11c1.12-4.45.89-9.34,1.34-13.79h-2c0,1.12.22,2,.22,3.12C141,96.28,140.09,98.51,140.09,101.18Z"/><path class="cls-1" d="M177.89,70.71c-2-2.44-2.22-6-4.23-8.23,0,7.79,2.45,15.79,4.23,23.35a3.74,3.74,0,0,0,1.56-3.33c0-2.23-.67-4.23-.67-6.23a70.83,70.83,0,0,1,2.67,12.23h16.23c-2,2.23-5.12,2.45-7.12,4.45l-.22,1.11c0,1.11.67,2,.67,3.11-3.56.45-7.12,1.12-10.68,1.34-5.11,14.45-9.56,28.91-14.23,43.36.23.22.45.22.89.22,7.56,0,4.67-4.22,6.23-5.78,13.34-2.45,25.79-6.67,39.8-6.23a49,49,0,0,0-1.11-8c2.67,2,1.56,6.45,4.67,8a92.41,92.41,0,0,0-4.67-20.23,1.94,1.94,0,0,0-.67,1.33c0,1.34.89,2.45.89,3.78l-.22.89c-3.56-4.89-3.33-13.78-5.11-19.79,0-.22,0-.89.44-.89.67,0,1.56,2.23,2.67,2.45V95.4c0-9.79-1.78-19.13-4-28.47,2,.22,2.89,2.67,4,4.23a50,50,0,0,1,4,5.56c3.12,5.33,4.89,14.9,11.79,16.9.67,3.11,3.11,5.33,3.56,8.45l.88.22c1.34,0,2.45-.89,3.79-.67h.88c0,12.45,10.23,12.9,15.79,20.9-8-1.77-15.12-6.89-22.46-10.23,3.78,12.68,9.79,31.8,22.91,37.14l-1.56,1.11c3.56,2.67,8,4.23,11.34,7.12v.66c0,.67-2.22.23-2.45.23l-.66.22c7.56,12.67,23.79,16.9,35.13,25.57-16-4-28.46-15.34-43.8-21.12,2.66,3.33,6.67,6.67,8.67,10.45l-.67.22c-3.78.22-27.57-26.68-40.69-26.68-3.34,0-5.78,1.78-9.12,2.22-2,.45-4,0-6,0-10.9,0-22.46,4.89-33.14,6.67-.66,4.67-.44,9.34-.44,13.79,0,3.33-.22,6.67-.45,10-3.77-5.11-1.11-15.78-6.22-19.12.44-2,2.22-2.67,2-5.11-5.34,2-10.45,5.33-15.57,8.67,1.12-10.23,13.35-14.68,13.35-26.24,0-1.11-.23-2-.23-2.89-2.89,4.89-6.44,9.12-9.56,13.79-3.11,5.11-4.89,10.89-8,15.78-2.23,3.12-14,15.35-17.35,16,11.79-20,25.58-28,25.35-54.7,1.34,0,1.78,1.11,3.12,1.11,1.55-.89,1.78-3.11,2.44-4.67-1.55,0-2.89.89-4.45,1.12-.22-.23-.66-.45-.66-.67s7.78-8.67,7.78-16.9a20.55,20.55,0,0,0-1.11-6.45,5.17,5.17,0,0,0-2.67-.45c-2.45,0-4.89.89-7.56.89a9.58,9.58,0,0,1-2.45-.44c.89-3.34,12-4.45,15.12-5.56-.89-7.34-1.33-14.68-2.44-22-6.45,3.11-12.23,15.78-18.68,20.9,1.33-8.23,8.23-15.12,8.23-23.57a16.62,16.62,0,0,0-2.23-8c4.67-.22,6.23-4.67,6.23-8.67a19.93,19.93,0,0,0-.67-5.11c1.11-.67,3.56-.45,4.23-2-.67-1.77-16.24-5.33-18.9-6-.23-1.78.89-2.67,1.55-4,5.34.22,10.45,2.22,15.79,2.89,3.11-10,1.56-20.9,4.45-30.91,4.67,2.89,1.78,29.13,10.23,29.13,4,0,7.78-2.45,12-2.45,8.23,0,16.24,1.34,24.46,1.34,12,0,27.58-1.34,38.7-6.67a7.58,7.58,0,0,1,.22,2.22A18.29,18.29,0,0,1,242.38,38c-2.45.45-4.9.89-7.57,1.12-1.11,1.33-1.77,3.11-3.11,4.44a137.87,137.87,0,0,1-13.79,3.56c-1.33,1.56-2.44,3.56-4,5.12h-2c-7.56-.23-14.45,3.33-21.79,3.33a14.81,14.81,0,0,1-3.11-.22c1.33-1.78,4-1.11,5.55-2.67-.22-.89-1.55-1.11-2.44-1.11-3.34,0-6.89.22-10.23.22-1.33.89,0,4.45-2,4.45-1.34-2.22-.22-6.23-2.22-8-1.34,1.12-1.78,2.89-1.78,4.9,0,6,4,11.34,4,17.56a.22.22,0,0,1,.22.22A.22.22,0,0,1,177.89,70.71Zm.89,3.78s0,.45-.22.45-.23-.89-.23-.89c0-.22,0-.67.23-.67S178.78,74.27,178.78,74.49Z"/><path class="cls-1" d="M322.65,135.87c1.78,6,6.22,10.89,7.56,17.12-3.34-3.34-5.12-8-8.67-11.12.22,5.56,6.67,8.67,6.67,15.34,0,6.23-4.23,11.57-4.45,18-5.34-14.67-1.56-38.91-15.79-49.58-1.78,4.44-2.22,9.56-2.22,14.45a115.26,115.26,0,0,0,3.11,24.68,1.94,1.94,0,0,1-1.11.23c-.67,0-.89-2.23-.89-2.67-.45-1.56-1.11-2.67-1.56-4.23-3.33-11.12-1.78-24.46-2.44-36-.67-10-3.78-19.35-7.12-28.46-.67-2-2-6.9-4.45-6.67H290c0,14.23-8,22.45-13.57,34.46-6.67,14.46-8.22,34.47-9.33,49.81-2.67-9.12,0-19.34-2.45-28.91-1.56,0-1.11,2.9-1.11,3.78s-.22,1.78-1.34,1.34v-1.34c0-1.33-.89-2.89-1.11-4.22a220.58,220.58,0,0,0-23.12,22.46c0-3.56,11.34-16,14-20.9-5.34.44-44.7,32-49.15,32.46v-1.11c0-1.78,3.34-3.34,4.45-4,15.34-10,31.35-21.35,38-39.14,1.34-.22,1.56,1.11,2,2,1.11-1.33,2.66-2.44,3.55-4a1.21,1.21,0,0,0-1.11-.67c-1.33,0-2.22.67-3.33.67,15.12-9.56,18.9-29.13,19.79-45.81-7.34,3.56-13.57,8.67-20.91,12.23,4.23-10.67,17.79-10.89,15.79-27.57h5.56c2.45-2.89,3.34-13.12,7.78-13.12h.23a2.28,2.28,0,0,0-.45,1.11c0,.22.45.45.67.45,7.34-16.9,14.45-29.36,15.79-48.48,1.55,6.23,2.22,13.12,2.89,19.35.22,2-.23,4.89,1.55,6.22,2.45.45,2.45-8,3.12-9.78,1.11,4,.44,9.11.44,13.34a15.84,15.84,0,0,0,.67,5.56c.89-9.79.22-19.79.44-29.58V8c8.9,10.68,8,36,15.79,38.7.45,4,1.56,8,2,12.23h7.12a15.93,15.93,0,0,0-1.34,6.45c0,9.56,10,14.67,12,23.57-6.89-5.56-13.34-11.34-20.23-16.9a14.51,14.51,0,0,0-1.56,6.67c0,4.22,1.78,10.45,6,12.23-1.11.67-3.78.44-4,2,2,5.78,2.23,12,5.12,17.34,3.11,6,7.78,10.9,10.67,17.35,2.67,6.45,4.89,13.34,9.12,18.9,7.78,10,18,17.79,26.46,26.68-9.12-2-34.91-30-43.81-37.35ZM277.29,44.7a4.19,4.19,0,0,1,.44,1.77c0,2.9-2.45,5.34-2.45,8.45-1.78-2.66-2-5.78-2-8.67,1.11-.44,2.23-1.55,3.56-1.55ZM284,101.62c2.44-2,3.78-6.89,3.78-10.23A8.76,8.76,0,0,0,286,85.83c-.23,4.9-2.45,9.34-2.23,14.23Zm6-20.23c1.11,0,1.78.44,2.89.44h.67c-.67-2.67.66-14.23-2.45-14.23C290,68,290,69.16,290,70V81.39Z"/><path class="cls-1" d="M432.94,60.26h2.22c4.89.22,9.56-1.33,14.23-1.33a36.31,36.31,0,0,1,4.89.22c-2,2.89-20,3.78-24.23,6.89.44.22,1.33.89,1.33,1.56v.89c-10.23,2-18.46,8.45-27.13,13.56.22,2.23,1.34,4.23,2,6.23l-.44.44c-1.78-.44-2.67-3.55-4.67-4.44-2,.66-3.78,2.44-6,2.89,0,3.33.23,6.45.23,9.78a55.42,55.42,0,0,1-.45,6l-.22-.45V99.4c-.67-1.56-.45-3.34-.45-5.12a12.75,12.75,0,0,0-.66-4,5.13,5.13,0,0,0-2.45,4.45c0,4.89.45,9.56.45,14.45,0,7.56,2.66,14.9,4,22.24,2.67,13.12,8.89,22,16.45,32.69,3.34,4.67,7.34,9.11,9.57,14.45l-.89.44C410,167.66,402.25,154.32,392,142.76a40,40,0,0,0-.44,5.11c0,5.12.89,10.23,1.11,15.12-2-1.11-1.78-4-3.56-5.11-3.56,7.78-3.11,16.9-3.11,25.57,0,1.78,0,4-1.56,5.34-1.11-14.46-2.45-28.91-2.45-43.58,0-12.68-7.11-18.91-10.89-30a124.49,124.49,0,0,1-4.89-25.35h-2c-4.66,0-8.89-1.56-13.34-1.56-1.55,0-1.55,2-1.55,3.11-2-.44-2.89-2.67-2.89-4.67-5.79-.89-21.8-8.22-27.36-8.22a3.6,3.6,0,0,1-3.55-2c6.67.67,13.12,2.67,20,2.67a24.49,24.49,0,0,0,5.78-.66c-4.89-4.67-11.78-6-17.79-9.12-2.89-1.56-5.56-3.34-8.67-4.45-3.11-1.33-7.34-1.56-10.23-3.56-2.67-2.22-1.33-5.56-4-7.33-.22,0-.67.22-.89.22l-.67-.22-1.78-2a12.4,12.4,0,0,1-5.11-4.44A16.34,16.34,0,0,1,297.29,52a13.48,13.48,0,0,1,3.34,2l.67-.45h.89c5.11,4.67,22.23,12.9,29.12,12.9a9,9,0,0,0,3.34-.67,13.11,13.11,0,0,0,4,.89c3.34,0,6.45-1.56,9.56-1.78.23,1.78-2.22,1.56-2.22,3.34v.66a1.86,1.86,0,0,0,1.56.89c.89,0,2.22-1.55,3.33-2l-1.55-1.56,1.78-.88c1.33.22,2.44,1.55,3.78,1.55,2.44,0,8.67,0,10.67-1.11,6.89-3.56,3.33-21.57,7.78-28,2.45,0,.89,4.45,2.89,5.12,2.23-1.56,3.78-13.57,3.78-16.46,0-6.67-2.22-13.34-2.22-20.23,2.89,2.89,3.33,15.12,4,19.34C384,18.46,384.24,10.9,386,3.78c6.22,10,2.22,23.57,4.44,34.69.67,3.11,4.23,5.56,3.56,9.12a6.91,6.91,0,0,0,2.89.66c4.45,0,7.34-4,11.57-4.89a6.34,6.34,0,0,1,.89,6.23c.89-.67,2-1.78,3.33-1.78a8.07,8.07,0,0,1,2.22.67c2.45-.89,5.12-1.78,7.12-3.56.89,1.55.22,3.56,1.56,4.67,10.45-1.78,20.68-5.78,31.35-5.78a49.18,49.18,0,0,1,8,.66c-2.23,2.89-6.23,2.45-9.34,3.56-7.56,2.67-13.57,8.45-20.91,11.79v.44ZM394,56.7c.45,0,.67-.22.89-.22.89,0,1.78.67,2.67.67l.67-.45c-1.56-.44-2.45-2-4.23-2Zm1.11,28,.45.89a45.42,45.42,0,0,1,4.67-2.44c-.22-1.12-.89-2.23-2-2.23a4.87,4.87,0,0,0-3.12,1.11A10.37,10.37,0,0,1,395.13,84.72Zm8.68-3.56a47.61,47.61,0,0,1,4-3.11c.89-.44,3.11-1.11,3.33-2l-.66-.45c-1.78.45-7.56,1.12-7.56,3.56Zm2.44-32,.22-.66c0-.67-2.22-.67-2.66-.89l-.23.66a1.55,1.55,0,0,0,1.12.89Z"/><path class="cls-1" d="M438.49,72.71a47.46,47.46,0,0,0-2.44,14.68c0,2.45.22,5.11,1.33,7.12,2,3.33,6.67,2.89,6.67,5.33,0,1.34-.89,2.45-.89,3.78l.45,1.11c2.44,2.67,15.12,3.12,19.12,3.12a33.91,33.91,0,0,0,9.34-1.11c4-30.69,1.78-62.27,6.67-92.73a5.75,5.75,0,0,1,2.45,5.11c0,2.89-.89,5.79-.89,8.68,0,8,7.56,5.11,11.34,9.11a128.35,128.35,0,0,1,.89,16c0,23.35-2.67,46.7-2.67,70.05,0,5.56.67,11.34.67,16.9,0,4-2.23,42.92-2.67,43.8V183h-.22c0,.44-.23,1.11-.23,1.33l-.22,3.56c-4-15.12-5.56-29.8-12-44.47-1.33,1.11,0,4.89-2.22,5.11v-1.33c.22-4.67-.45-9.12-.45-13.79,0-3.11.67-6.23.67-9.34,0-8.23-14.9-8.89-20.9-8.89-5.11,0-7.12,3.33-10.45,3.33a5,5,0,0,1-2.45-.67,5.34,5.34,0,0,0-.44,1.78c0,1.56.89,3.34,1.11,4.9l-1.11.22c-.67,0-1.34-.67-2-.67-.23,2,1.33,3.11.89,5.11h.88c1.12,0,2-1.77,2.9-1.77.22,0,.22,0,.44.22a33.12,33.12,0,0,0-.22,4.67c0,23.57,13.12,34,23.57,52.7h-.89c-3.56.22-23.79-32.24-27.57-37.14-.23,5.56,0,11.12,0,16.68a79.51,79.51,0,0,1-.45,10.23c-6.67.44-4-9.78-4-13.79a10.29,10.29,0,0,0-.67-3.78c-5.56,1.78-5.11,10.9-5.56,15.57-.89,6.67-2.67,13.12-3.11,19.79a49.2,49.2,0,0,1-.67-8c0-9.34,2.67-18.45,2.67-27.57,0-5.78-.89-11.56-.89-17.57,0-7.78-4-15.12-6-22.46a114.35,114.35,0,0,1-3.78-28.9,75.71,75.71,0,0,1,.66-9.79c1.12,1.34.67,3.78.67,5.56a4.37,4.37,0,0,0,.45,2.45c2.89-2,5.78-20.46,6.89-24.91-2,.89-2.22,3.56-3.34,5.12.67-8,2.67-18.24,6.45-25.35,2-.45,1.34,2.67,1.34,3.56l.22.88c6.67-11.34,9.78-24.9,11.56-38a58.69,58.69,0,0,1,3.78,19.57c0,4.89-1.11,9.56-1.11,14.45,0,3.12.45,6.45,3.56,8.23-.67,3.78-.45,7.78-1.11,11.56,1.55,1.34,4.67,1.34,6.67,1.56-1.34,4-3.34,4.67-3.34,9.56,0,7.78,6.45,14,6.45,22C448.5,87.61,443.61,80.05,438.49,72.71Z"/><path class="cls-1" d="M570.58,71.6a5.73,5.73,0,0,0-4.9-3.11A5.42,5.42,0,0,0,561,71.16c1.12,7.34,4.67,14.45,4.67,21.79-4,0-14.23-29.8-15.78-34.47-1.56-4-2-9.34-6.23-11.34A10,10,0,0,0,537,54.92c-.89-1.33-.22-4.22-.45-5.78v-.89c-4,.67-13.78,21.57-13.78,26,0,6.67,12.45,15.57,16.9,21.35-2.89-.45-16.24-7.79-19.79-9.79a11.74,11.74,0,0,0-1.56,6.23c0,3.56,1.33,9.12,6,9.12v5.56c4.67,12.67,14.24,20.9,24,29.57,15.57-6.89,12.67-12,20.24-24.9,1.55-2.67,4.22-4.23,6.22-6.68,2.67-3.33,4-7.78,6.67-11.11a19.23,19.23,0,0,1,1.34,7.11c0,8.9-5.34,16.68-8,24.91-3.33,9.78-8.23,19.34-15.79,26.46,3.78,5.11,28.47,16.68,28.47,20a1,1,0,0,1-.67.89c-4,0-23.79-16-29.8-16-3.56,0-4.67,3.78-5.11,6.67h-1.34a10.29,10.29,0,0,0-3.78.67c-4,2-8,5.56-11.78,8.23-8.45,5.78-16.9,11.56-25.8,16.45,4.23-5.78,25.35-27.57,25.35-32.46,0-3.78-22-29.13-25.79-34-2.23,2.67-1.56,6.9-4,9.12-2.67-1.33-3.56-23.13-5.12-28a27.16,27.16,0,0,1-3.56-13.78V88.5c-1.78-9.34-4.22-18.68-5.56-28,1.78,1.12,1.78,4.23,4.45,4.45V62.26c.22-12.45-2.89-24.68-6.67-36.47,4.67-1.11,17.35,28.47,19.35,33.14h4.44c5.56-9.12,9.12-19.13,14.9-28,4-6.45,8.9-12.23,13.57-18.24,1.11-1.55,3.11-5.11,5.11-5.11,1.11,0,1.33,1.33,1.33,2,0,5.56-.44,11.12-.22,16.68v3.11c2.45.22,5.78-3.56,9.12-4C560.79,40.69,566.35,56,570.58,71.6h.22a.22.22,0,0,0,.22.22C570.8,71.82,570.8,71.82,570.58,71.6Zm-74.5,16.9c1.78,4.89,2.45,10,3.56,15.12,1.56.22,1.78-1.78,1.78-2.89,0-6.67-2.67-14.9-4.45-21.57-1.78,1.34-.66,6-.89,7.79Z"/><path class="cls-1" d="M616.83,59.82a4.58,4.58,0,0,0-.89,2.44c0,2,2.44,4.23,2.44,8.23,0,3.11-3.33,5.78-3.33,9.12,0,1.33,5.11,12,6,16.67l-.89-2a6,6,0,0,0-.67,3.34,256.32,256.32,0,0,1-4.66,31.57,5.52,5.52,0,0,1,1.77-.22c8.45,0,17.57,7.56,24.69,7.56a6.48,6.48,0,0,0,3.55-.89c-1.55-4.44-2.66-17.79-5.55-20.68,5.33.89,10,14.23,15.78,17.13,5.12,2.44,11.57,3.55,15.35,8.22-2.45,2-6.45,2.23-7.79,5.56.23,2.67,2.89,3.34,4.67,5.12,6.67,6.45,10.23,15.12,18.24,20,0,.89-1.56.67-2,.67,2.44,2.66,6.22,3.55,8.67,6C666,170.78,644.62,153,618.83,145a47,47,0,0,1-5.12,2c-.44,4.45-3.11,7.12-4.67,11.12-1.11,3.34-.44,8.23-4,10,2.45-5.78,2.67-12.45,5.12-18.68-6.23,3.78-12.24,8.23-16.24,14.23-4.22,6.23-5.56,14.23-10.67,20.24-2.22,2.89-5.12,5.33-7.56,8.22-2.23,2.9-4.45,6-7.56,8,1.33-2.45,8.89-13.12,9.12-13.56,0-.45.22-.67.22-.89,0-.67-.67-1.12-.67-1.56,0-.22.22-.22.45-.22,8.22-12.23,15.56-22.68,18.67-37.36a8,8,0,0,0-2.22-.45c-4.23,0-8.23,1.56-12.23,1.56a6.88,6.88,0,0,1-2.22-.22v-.67c0-.89,2.44-1.11,3.11-1.33,4-.89,8.23-.67,12.23-1.56a7.91,7.91,0,0,0,2.45-6.23c0-3.11-.89-6-.89-8.89a7.58,7.58,0,0,1,.22-2.22c2,.44.89,4,3.56,3.55,1.78-1.33,1.55-5.11,1.55-7.11a.81.81,0,0,0-.66-.22c-1.34,0-1.56,2.44-2.67,2.66l-.67-.44a1.35,1.35,0,0,1-.22-.89c0-2.45,2.89-4.45,3.11-7.12l2-.66a81,81,0,0,0,1.11-12.68c0-7.78-3.55-12-7.11-18.45-7.56,8.67-14.23,18.9-20.68,28.68a3.23,3.23,0,0,1-.45-1.56c0-1.55,2-3.11,2.45-4.67,1.11-2.44.67-5.55,1.56-8,1.11-3.78,4.89-8.23,4.89-12a5.62,5.62,0,0,0-1.34-3.78,28.59,28.59,0,0,0-3.11-8.67c1.34-1.33,2.89-2.67,4.67-2.67a5.36,5.36,0,0,1,3.11,1.11c0-.44.23-.66.23-1.11,0-1.11-1.56-1.56-2.45-2a5.37,5.37,0,0,0,1.56-4c0-3.56-2-6.67-2.45-10.23a6.54,6.54,0,0,0,2,.44,3.86,3.86,0,0,0,3.11-1.55c-.66-10.45-2.66-20.91-2.66-31.58A59.12,59.12,0,0,1,589,6.89c3.56,3.12,1.78,8.68,2.89,12.68,1.78,6.22,5.56,12.45,7.56,19.34a21.63,21.63,0,0,0,.67-5.33c0-4.89-1.34-9.56-1.34-14.68V16.46C601.93,28,603.26,41.8,609,52.26c1.12-1.34-.22-4.45,1.56-5.12,4,2,1.33,10.23,4.67,13.12ZM616.6,101a10.15,10.15,0,0,0-1.33-4.89,39.72,39.72,0,0,1,0,5.12c0,1.11,0,2.22.67,2.89A7.17,7.17,0,0,0,616.6,101Z"/><path class="cls-1" d="M725.78,24.24a96.37,96.37,0,0,1-14.23,17.34c-1.78,5.56-4.45,10.9-6,16.46.89,1.33,1.55,2.67,3.55,2.44,0,1.34-1.11,1.56-1.11,3.12,0,1.78,6.45,8.67,7.56,11.11,4,8,3.78,17.57,6.67,26a22.26,22.26,0,0,0,5.12,1.56v1.11c0,.89,0,2.22.44,2.22.67,0,1.56-5.56,2.45-6.45v.23c0,5.11-1.78,6-2.89,10.23-1.11,4.67-1.11,9.78-1.11,14.67,0,3.56,0,7.12.22,10.68,0,2.44.89,4.67.89,6.89a4.58,4.58,0,0,1-1.56,3.78L726,143c0-8-2-15.79-2.22-23.79-1.78,1.56-2.22,4-3.11,6.22-.67,2.23-1.78,4.23-2.45,6.45-3.33,13.57-.67,26.91-5.56,40a1.68,1.68,0,0,0-.22,1.11c0,.89.67,2,.67,3.11,0,0,0,.67-.23.89a2,2,0,0,0-1.11-.89c-.22,0-.44.23-.66.45S709.77,185,708,188.34a48.15,48.15,0,0,1,2-13.78c-8.45-18.46-30.24-24.68-41.13-41.14-2.23,2-2.67,5.11-2.67,8v4.23c.22,11.34,4.22,10,4.22,14,0,2-.44,1.56-1.11,3.11a63.25,63.25,0,0,1,2.67,16c-1.78-2.44-8-28.24-8.23-32.24-.89-13.12-2-11.79-6-22.68a149,149,0,0,0-3.56,31.57,3.74,3.74,0,0,1-1.56-3.33c0-2.67,1.12-5.34,1.12-8.23,0-3.78-1.12-17.57-1.56-27.13-.22,3.34-.45,6-.67,6.23-.67-1.11-3.33-12.9-3.33-14.68,0-16,17.34-24.68,25.12-36.69-6.22-9.34-15.12-16.45-21.57-25.79,6.67,1.55,8,8.89,14,11.12.22-.23.22-.45.22-.89,0-1.78-1.55-3.12-1.55-4.9a3.17,3.17,0,0,1,.44-1.33c4.67,3.78,6,10.23,11.12,13.79,0-5.56-2.67-7.56-5.11-11.79,0-1.78,3.11-1.11,3.11-2.22,0-7.34-13.34-32.25-14.23-49.59,3.56,2.89,4,7.78,6,11.56,4.89,8.9,15.12,23.8,22.46,30a1.48,1.48,0,0,0,.89-1.33c0-1.56-1.56-2.89-1.56-4.67A4.78,4.78,0,0,1,688.2,34c4,3.11,4.89,9.34,7.12,13.79,6.89-8.9,14.23-18,19.34-28,1.78-3.56,2.23-7.78,5.56-10.23a199.11,199.11,0,0,1-4.67,22.91c3.78-2.23,6.45-5.34,9.79-8.23ZM672.86,134.75c.22,0,.44,0,.44-.22-.89-2.67-2.89-4.45-4.44-6.67a3.19,3.19,0,0,0-.67,2.45,4.94,4.94,0,0,0,.67,3.11C670.41,133.42,671.3,134.75,672.86,134.75ZM680.64,111a16.94,16.94,0,0,1,0-3.34,1.83,1.83,0,0,0-.67-1.77c-.66,1.33-2.89,5.33-5.33,5.11,1.78.67,4.44,2.89,5.33,3.56.23,7.11,5.56,8.89,10.68,11.78,5.33-2.66,12-4.44,16.23-8.89-1.78-6.67-3.78-13.34-6.89-19.35-.23,7.56-.23,15.12-1.11,22.46-.67-4.89-2-9.56-3.12-14.23-.89-4.45-1.33-16.68-6.67-18.23-1.56,2.67-3.11,5.33-3.56,8.67C681.31,98.73,683.09,107.18,680.64,111Zm34.69-29.8c.22-6.67-4.89-11.34-8.89-16a3.75,3.75,0,0,0-.67,2.23c0,2.22,7.56,13.34,9.34,15.56Zm-5.78,31.36a6.6,6.6,0,0,1-2.22-4.23,2.55,2.55,0,0,1,.66-1.78c1.11.89,1.11,2.67,2.67,3.12a6.07,6.07,0,0,0,1.34-3.78,4.09,4.09,0,0,0-2.9-4V103c0,.66,0,2-1.11,2a.22.22,0,0,0-.22-.23c-.22,0-.22.67-.22.67a21.43,21.43,0,0,0-.45,5.34,54.28,54.28,0,0,0,.23,6A11,11,0,0,0,709.55,112.52Zm-1.11,13.78c.22.45.44,1.56.89,1.56l.22-.22c-.67-2.45-1.34-5.12-2-7.78A29.68,29.68,0,0,0,708.44,126.3Zm5.11,16.46a26.59,26.59,0,0,0-.44-5.78c-2.67,2.22-3.56,5.56-3.56,8.89,0,4.45,1.33,8.67,2,13.12A79.11,79.11,0,0,0,713.55,142.76Z"/><path class="cls-1" d="M799.83,71.6a5.75,5.75,0,0,0-4.9-3.11,5.42,5.42,0,0,0-4.67,2.67c1.12,7.34,4.67,14.45,4.67,21.79-4,0-14.23-29.8-15.79-34.47-1.55-4-2-9.34-6.22-11.34a10,10,0,0,0-6.67,7.78c-.89-1.33-.22-4.22-.45-5.78v-.89c-4,.67-13.78,21.57-13.78,26,0,6.67,12.45,15.57,16.9,21.35-2.89-.45-16.24-7.79-19.79-9.79a11.74,11.74,0,0,0-1.56,6.23c0,3.56,1.33,9.12,6,9.12v5.56c4.67,12.67,14.23,20.9,24,29.57,15.56-6.89,12.67-12,20.23-24.9,1.56-2.67,4.23-4.23,6.23-6.68,2.67-3.33,4-7.78,6.67-11.11a19.23,19.23,0,0,1,1.34,7.11c0,8.9-5.34,16.68-8,24.91-3.34,9.78-8.23,19.34-15.79,26.46,3.78,5.11,28.46,16.68,28.46,20a1,1,0,0,1-.66.89c-4,0-23.8-16-29.8-16-3.56,0-4.67,3.78-5.11,6.67h-1.34a10.29,10.29,0,0,0-3.78.67c-4,2-8,5.56-11.78,8.23-8.45,5.78-16.9,11.56-25.8,16.45,4.23-5.78,25.35-27.57,25.35-32.46,0-3.78-22-29.13-25.79-34-2.23,2.67-1.56,6.9-4,9.12-2.66-1.33-3.55-23.13-5.11-28a27.16,27.16,0,0,1-3.56-13.78V88.5c-1.78-9.34-4.22-18.68-5.56-28,1.78,1.12,1.78,4.23,4.45,4.45V62.26c.22-12.45-2.89-24.68-6.67-36.47,4.67-1.11,17.34,28.47,19.35,33.14h4.44c5.56-9.12,9.12-19.13,14.9-28,4-6.45,8.9-12.23,13.57-18.24,1.11-1.55,3.11-5.11,5.11-5.11,1.11,0,1.33,1.33,1.33,2,0,5.56-.44,11.12-.22,16.68v3.11c2.45.22,5.78-3.56,9.12-4C790,40.69,795.6,56,799.83,71.6h.22a.22.22,0,0,0,.22.22C800.05,71.82,800.05,71.82,799.83,71.6Zm-74.5,16.9c1.78,4.89,2.45,10,3.56,15.12,1.56.22,1.78-1.78,1.78-2.89,0-6.67-2.67-14.9-4.45-21.57-1.78,1.34-.67,6-.89,7.79Z"/><path class="cls-1" d="M837.4,30.69c0,3.78-.66,7.33-.66,11.11,0,2.9.66,5.79,3.33,7.57v2.22c.22,3.11-.67,6.23-.67,9.56,1.12,1.78,4.9,1.11,6.68,2-2.23,2.45-2.9,6-2.9,9.12,0,4.22,1.34,9.34,4.45,12.23,9.79-4,14.23-15.79,14.23-25.79a36.06,36.06,0,0,0-2.44-12.9c3.33-.45,2,5.56,4,7.11,3.78-1.33,4-6.67,4-10.23s-1.11-7.11-1.11-10.89a6,6,0,0,1,2.22-4.89c3.78,2,5.79,15.12,4.67,18.9,4.23,8.23,2.67,23.12,4.23,32.46-2.89,4.23-6.67,7.79-8.9,12.23-2.89-.22-3.55-2.89-6-3.55-6.45,3.55-12.45,7.56-18.9,10.67,2.89,5.11,34,31.8,38,31.8,4.45,0,7.12-7.79,10.23-10.23a3.68,3.68,0,0,1,1.11,2.67c0,2-1.11,3.78-1.11,5.56,0,4.67,3.34,5.55,5.12,8.89-3.12,6.45-4.23,13.57-4.67,20.68a4.2,4.2,0,0,0,.44-1.78,1.11,1.11,0,0,0,.22-.67c.23,0,0,1.12,0,1.12,0,3.11,0,6.44-.22,9.56a5.55,5.55,0,0,0-.22,2c-.22.22,0,.22-.22.22v-.67a38,38,0,0,1-.22-5.11c0-1.56.22-3.11.22-4.67-.89,2-1.78,2.45-1.78,6.45,0,4.89,2,9.78,2,14.9a10.12,10.12,0,0,1-2.22,6.67c-5.12-12.9-11.12-6.89-13.12-23.57-.67-6-.45-14.68-3.56-20-4.89-7.78-29.8-25.57-38.69-30a5.66,5.66,0,0,0-1.56,4c0,3.56,2.22,6.67,3.56,9.78l-1.78-.44-.67.44-.22,1.78c0,1.11,0,2.67,1.11,3.34,1.56-.45.22-3.78,2-3.56,0,22.68,8.9,32.46,19.57,48.25,1.56-4.45,1.11-9.56,3.34-13.78.44-.45.89-1.34,1.55-.89v-.23c.23,0,.23.45.23.67,0,4.67-.67,9.56-1.12,14.23a28.15,28.15,0,0,1-.66,4.23l-.23.44-.22-.22c-.89-1.56-2-3.11-2.89-4.45-.22.45-.44,1.11-.67,1.56a.71.71,0,0,1-.66.67c-.22,0-.22-.23-.45-.23-6.45-8.67-13.34-17.56-18.68-26.9a88,88,0,0,0-2.22,20,38,38,0,0,0,.22,4.89c0,.67,0,1.78.22,1.78s.45-.67.45-.89c.67-1.78.67-4,1.33-5.78.23,5.34-2.89,10.23-1.55,15.57-4.9-2.67-3.78-17.13-4-21.8-1.11-14-.89-11.11-6.67-22.9-2.22,4.45-.89,17.34-.89,22.9a47.85,47.85,0,0,1-.66,7.56c-4-2.44-3.56-21.56-3.56-26a127.72,127.72,0,0,0-.45-13.12c-1.33-9.34-6.22-16.9-8.45-26,.45-1.11,1.56-2.22,1.56-3.56,0-3.33-4.45-2.22-6.67-3.56,1.33-1.11,3.56-1.11,5.11-2-2.22-2.22-6-2.44-7.11-5.55h1.11c1.78-.23,3.34.44,4.89.44,1.34-3.78,1.34-8.23,1.56-12.23l.22-.22c.45,0,.22,1.78.22,2.22,0,.22,0,1.78.45,1.78a.84.84,0,0,0,.67-.22c1.33-.45,5.55-18.68,6.44-21.35-2.44-.44-3.55,5.56-4.44,7.12,1.11-9.12,3.78-18,6-26.91,1.11,1.33.45,3.11,1.34,4.67,1.77-2.45,1.77-6.45,2.66-9.34,1.12.44,1.12,2.22,1.56,3.11,3.56-10.23,5.11-21.12,8-31.57A79.22,79.22,0,0,1,837.4,30.69Zm-4,63.37c4,0,7.78-4.22,11.12-6a66.7,66.7,0,0,0-9.12-11.79c-.22,5.56-2.22,11.12-2,16.68Z"/></g></g></svg>