<svg xmlns="http://www.w3.org/2000/svg" xmlns:xlink="http://www.w3.org/1999/xlink" viewBox="0 0 1500 1501"><defs><style>.cls-1{opacity:0.6;}.cls-2{fill:#3a3a3a;}.cls-3{fill:#939393;}.cls-4{opacity:0.2;fill:url(#linear-gradient);}</style><linearGradient id="linear-gradient" x1="-3691.26" y1="1426.56" x2="-5022.31" y2="69.76" gradientTransform="translate(5104)" gradientUnits="userSpaceOnUse"><stop offset="0" stop-color="#fff"/><stop offset="1"/></linearGradient></defs><title>Asset 2</title><g id="Layer_2" data-name="Layer 2"><g id="Layer_1-2" data-name="Layer 1"><g class="cls-1"><rect width="1500" height="1500"/><rect class="cls-2" x="1312.5" width="187.5" height="187.5"/><rect class="cls-3" x="1312.5" y="187.5" width="187.5" height="187.5"/><rect class="cls-2" x="1312.5" y="375" width="187.5" height="187.5"/><rect class="cls-3" x="1312.5" y="562.5" width="187.5" height="187.5"/><rect class="cls-2" x="1312.5" y="750" width="187.5" height="187.5"/><rect class="cls-3" x="1312.5" y="937.5" width="187.5" height="187.5"/><rect class="cls-2" x="1312.5" y="1125" width="187.5" height="187.5"/><rect class="cls-3" x="1312.5" y="1312.5" width="187.5" height="187.5"/><rect class="cls-2" x="1125" y="1312.5" width="187.5" height="187.5"/><rect class="cls-3" x="1125" y="1125" width="187.5" height="187.5"/><rect class="cls-2" x="1125" y="937.5" width="187.5" height="187.5"/><rect class="cls-3" x="1125" y="750" width="187.5" height="187.5"/><rect class="cls-2" x="1125" y="562.5" width="187.5" height="187.5"/><rect class="cls-3" x="1125" y="375" width="187.5" height="187.5"/><rect class="cls-2" x="1125" y="187.5" width="187.5" height="187.5"/><rect class="cls-3" x="1125" width="187.5" height="187.5"/><rect class="cls-2" x="937.5" width="187.5" height="187.5"/><rect class="cls-3" x="937.5" y="187.5" width="187.5" height="187.5"/><rect class="cls-2" x="937.5" y="375" width="187.5" height="187.5"/><rect class="cls-3" x="937.5" y="562.5" width="187.5" height="187.5"/><rect class="cls-2" x="937.5" y="750" width="187.5" height="187.5"/><rect class="cls-3" x="937.5" y="937.5" width="187.5" height="187.5"/><rect class="cls-2" x="937.5" y="1125" width="187.5" height="187.5"/><rect class="cls-3" x="937.5" y="1312.5" width="187.5" height="187.5"/><rect class="cls-2" x="750" y="1312.5" width="187.5" height="187.5"/><rect class="cls-3" x="750" y="1125" width="187.5" height="187.5"/><rect class="cls-2" x="750" y="937.5" width="187.5" height="187.5"/><rect class="cls-3" x="750" y="750" width="187.5" height="187.5"/><rect class="cls-2" x="750" y="562.5" width="187.5" height="187.5"/><rect class="cls-3" x="750" y="375" width="187.5" height="187.5"/><rect class="cls-2" x="750" y="187.5" width="187.5" height="187.5"/><rect class="cls-3" x="750" width="187.5" height="187.5"/><rect class="cls-2" x="562.5" width="187.5" height="187.5"/><rect class="cls-3" x="562.5" y="187.5" width="187.5" height="187.5"/><rect class="cls-2" x="562.5" y="375" width="187.5" height="187.5"/><rect class="cls-3" x="562.5" y="562.5" width="187.5" height="187.5"/><rect class="cls-2" x="562.5" y="750" width="187.5" height="187.5"/><rect class="cls-3" x="562.5" y="937.5" width="187.5" height="187.5"/><rect class="cls-2" x="562.5" y="1125" width="187.5" height="187.5"/><rect class="cls-3" x="562.5" y="1312.5" width="187.5" height="187.5"/><rect class="cls-2" x="375" y="1312.5" width="187.5" height="187.5"/><rect class="cls-3" x="375" y="1125" width="187.5" height="187.5"/><rect class="cls-2" x="375" y="937.5" width="187.5" height="187.5"/><rect class="cls-3" x="375" y="750" width="187.5" height="187.5"/><rect class="cls-2" x="375" y="562.5" width="187.5" height="187.5"/><rect class="cls-3" x="375" y="375" width="187.5" height="187.5"/><rect class="cls-2" x="375" y="187.5" width="187.5" height="187.5"/><rect class="cls-3" x="375" width="187.5" height="187.5"/><rect class="cls-2" x="187.5" width="187.5" height="187.5"/><rect class="cls-3" x="187.5" y="187.5" width="187.5" height="187.5"/><rect class="cls-2" x="187.5" y="375" width="187.5" height="187.5"/><rect class="cls-3" x="187.5" y="562.5" width="187.5" height="187.5"/><rect class="cls-2" x="187.5" y="750" width="187.5" height="187.5"/><rect class="cls-3" x="187.5" y="937.5" width="187.5" height="187.5"/><rect class="cls-2" x="187.5" y="1125" width="187.5" height="187.5"/><rect class="cls-3" x="187.5" y="1312.5" width="187.5" height="187.5"/><rect class="cls-2" y="1312.5" width="187.5" height="187.5"/><rect class="cls-3" y="1125" width="187.5" height="187.5"/><rect class="cls-2" y="937.5" width="187.5" height="187.5"/><rect class="cls-3" y="750" width="187.5" height="187.5"/><rect class="cls-2" y="562.5" width="187.5" height="187.5"/><rect class="cls-3" y="375" width="187.5" height="187.5"/><rect class="cls-2" y="187.5" width="187.5" height="187.5"/><rect class="cls-3" width="187.5" height="187.5"/></g><rect class="cls-4" y="1" width="1500" height="1500" transform="translate(1500 1502) rotate(180)"/></g></g></svg>