<svg xmlns="http://www.w3.org/2000/svg" viewBox="0 0 71.82 149.12"><defs><style>.cls-1{fill:#b7b7b7;}.cls-2{fill:#ddd;}</style></defs><title>Asset 14</title><g id="Layer_2" data-name="Layer 2"><g id="Layer_1-2" data-name="Layer 1"><polygon class="cls-1" points="65.74 149.12 65.74 149.12 6.09 149.12 6.09 149.12 0 143.03 0 136.95 6.09 130.86 6.09 130.86 63.71 130.86 65.74 130.86 65.74 130.86 71.83 136.95 71.83 143.03 65.74 149.12"/><polyline class="cls-2" points="0 139.99 0 136.95 6.09 130.86 6.09 130.86 63.71 130.86 65.74 130.86 65.74 130.86 71.83 136.95 71.83 139.99"/><polygon class="cls-1" points="63.6 137.61 8.23 137.61 13.05 132.91 58.87 132.91 63.6 137.61"/><polyline class="cls-2" points="22.35 45.34 11.86 108.67 10.71 115.57 18.18 123.17 25.23 123.17 53.95 123.17 61.19 115.92 49.41 45.34"/><polyline class="cls-1" points="22.35 45.34 11.86 108.67 10.71 115.57 18.18 123.17 25.23 123.17 48.27 123.17 39.57 45.34"/><polyline class="cls-2" points="61.09 26.74 55.65 34.62 55.65 34.62 17.43 34.62 17.43 34.62 11.98 26.74"/><polygon class="cls-1" points="48.96 0 48.96 7.41 42.6 7.41 42.6 0 30.47 0 30.47 7.41 24.11 7.41 24.11 0 11.98 0 11.98 13.18 11.98 13.57 11.98 26.74 61.09 26.74 61.09 13.57 61.09 13.18 61.09 0 48.96 0"/><polygon class="cls-1" points="11.98 26.74 17.43 34.62 44.23 34.62 48.96 26.74 11.98 26.74"/><polygon class="cls-2" points="61.09 0 48.96 0 48.96 26.74 44.23 34.62 55.65 34.62 61.09 26.74 61.09 0"/></g></g></svg>