<svg xmlns="http://www.w3.org/2000/svg" viewBox="0 0 71.82 162.72"><defs><style>.cls-1{fill:#b7b7b7;}.cls-2{fill:#ddd;}</style></defs><title>Asset 10</title><g id="Layer_2" data-name="Layer 2"><g id="Layer_1-2" data-name="Layer 1"><path class="cls-1" d="M43,6.82A7,7,0,0,0,36.14,0a6.91,6.91,0,0,0-6.92,6.82,6.91,6.91,0,0,0,6.92,6.82A6.82,6.82,0,0,0,43,6.82Z"/><path class="cls-2" d="M36.09,0H36A8.53,8.53,0,0,1,39.3,6.82,8.5,8.5,0,0,1,36,13.64h.05a7,7,0,0,0,6.83-6.82A7,7,0,0,0,36.09,0Z"/><rect class="cls-1" x="15.61" y="44.67" width="39.91" height="8.67"/><polyline class="cls-2" points="22.4 60.05 11.82 123.78 10.67 130.68 18.14 138.27 25.19 138.27 53.91 138.27 61.15 131.03 49.34 59.98"/><polyline class="cls-1" points="22.4 60.05 11.82 123.78 10.67 130.68 18.14 138.27 25.19 138.27 48.24 138.27 39.34 59.98"/><polygon class="cls-1" points="65.74 162.72 65.74 162.72 6.09 162.72 6.09 162.72 0 156.64 0 150.55 6.09 144.46 6.09 144.46 63.71 144.46 65.74 144.46 65.74 144.46 71.83 150.55 71.83 156.64 65.74 162.72"/><polyline class="cls-2" points="0 153.59 0 150.55 6.09 144.46 6.09 144.46 63.71 144.46 65.74 144.46 65.74 144.46 71.83 150.55 71.83 153.59"/><polygon class="cls-1" points="63.6 151.21 8.23 151.21 13.05 146.51 58.87 146.51 63.6 151.21"/><path class="cls-2" d="M57.48,17.3A45,45,0,0,0,48.4,40.9c-.11,1.26-.16,2.54-.16,3.83H22.87c0-1.11,0-2.2-.11-3.28a45.15,45.15,0,0,0-9.12-24.14L27,23.59l9-9.95,8.69,10Z"/><path class="cls-1" d="M44.47,23.44l-8.56-9.8-9,10L13.64,17.31a45.15,45.15,0,0,1,9.12,24.14c.07,1.08.11,2.17.11,3.28H40.31Z"/></g></g></svg>