<svg xmlns="http://www.w3.org/2000/svg" viewBox="0 0 71.82 137.29"><defs><style>.cls-1{fill:#b7b7b7;}.cls-2{fill:#ddd;}</style></defs><title>Asset 12</title><g id="Layer_2" data-name="Layer 2"><g id="Layer_1-2" data-name="Layer 1"><polygon class="cls-1" points="65.74 137.29 65.74 137.29 6.09 137.29 6.09 137.29 0 131.2 0 125.12 6.09 119.03 6.09 119.03 63.71 119.03 65.74 119.03 65.74 119.03 71.83 125.12 71.83 131.2 65.74 137.29"/><polyline class="cls-2" points="0 128.16 0 125.12 6.09 119.03 6.09 119.03 63.71 119.03 65.74 119.03 65.74 119.03 71.83 125.12 71.83 128.16"/><polygon class="cls-1" points="63.6 125.78 8.23 125.78 13.05 121.08 58.87 121.08 63.6 125.78"/><path class="cls-1" d="M57,21.07C57,9.43,46.72,0,35.89,0A21.33,21.33,0,0,0,14.52,21.07,21.33,21.33,0,0,0,35.89,42.14,21.07,21.07,0,0,0,57,21.07Z"/><path class="cls-2" d="M35.74,0h-.17A26.28,26.28,0,0,1,45.63,21.07,26.26,26.26,0,0,1,35.57,42.14h.17c10.83,0,21.07-9.43,21.07-21.07S46.57,0,35.74,0Z"/><path class="cls-2" d="M35.55,49.82A87.76,87.76,0,0,1,19.9,48.41l-8,48.43-1.15,6.9,7.47,7.6H54l7.24-7.25L51.91,48.27A86.51,86.51,0,0,1,35.55,49.82Z"/><path class="cls-1" d="M35.55,49.82A87.76,87.76,0,0,1,19.9,48.41l-8,48.43-1.15,6.9,7.47,7.6H48.27l-7-61.71C39.38,49.75,37.48,49.82,35.55,49.82Z"/></g></g></svg>