<svg xmlns="http://www.w3.org/2000/svg" viewBox="0 0 112.12 148.97"><defs><style>.cls-1{fill:#b7b7b7;}.cls-2{fill:#ddd;}</style></defs><title>Asset 9</title><g id="Layer_2" data-name="Layer 2"><g id="Layer_1-2" data-name="Layer 1"><path class="cls-1" d="M25.56,105.18,41.28,123,81,122.79a30.33,30.33,0,0,1,26.34-18.51h0a72.68,72.68,0,0,0,4.8-26.11c0-25.85-13.27-48.64-33.18-60.79-.79,0-1.57,0-2.34-.11A22.77,22.77,0,0,1,60.77,8.68,23.7,23.7,0,0,0,48.28,0h0c.06.7.09,1.42.09,2.13a25.34,25.34,0,0,1-7,17.59L0,54.81H0v8.66L10.36,75.23h9.1L25.62,70h0a9.43,9.43,0,0,1,5.4-1.7,8.71,8.71,0,0,1,1.36.1,22.84,22.84,0,0,0,5.7.76A23.45,23.45,0,0,0,57.55,58.47h0A34.61,34.61,0,0,1,45.45,79l0,0L25.56,95.77"/><polygon class="cls-1" points="91.86 148.97 91.86 148.97 32.22 148.97 32.22 148.97 26.13 142.89 26.13 136.8 32.22 130.71 32.22 130.71 89.84 130.71 91.86 130.71 91.86 130.71 97.95 136.8 97.95 142.89 91.86 148.97"/><polyline class="cls-2" points="26.13 139.84 26.13 136.8 32.22 130.71 32.22 130.71 89.84 130.71 91.86 130.71 91.86 130.71 97.95 136.8 97.95 139.84"/><polygon class="cls-1" points="89.72 137.46 34.36 137.46 39.18 132.76 85 132.76 89.72 137.46"/><path class="cls-2" d="M78.94,17.38c-.79,0-1.57,0-2.34-.11s-1.68-.22-2.5-.39A113.84,113.84,0,0,1,90.65,76.34a114.59,114.59,0,0,1-9.74,46.45h0a30.33,30.33,0,0,1,26.34-18.51h0a72.68,72.68,0,0,0,4.8-26.11C112.12,52.32,98.85,29.53,78.94,17.38Z"/></g></g></svg>